<svg width="350" height="350" viewBox="0 0 350 350" fill="none" xmlns="http://www.w3.org/2000/svg">
<path d="M244.723 339.173L175.455 269.722L150 244.269L244.723 149L270.359 174.636L200.725 243.906L270.359 313.537L244.723 339.173Z" fill="currentColor"/>
<path d="M244.723 200.173L175.455 130.722L150 105.269L244.723 10L270.359 35.6356L200.725 104.906L270.359 174.537L244.723 200.173Z" fill="currentColor"/>
<path d="M105.636 10L174.904 79.4509L200.359 104.904L105.636 200.173L80 174.537L149.634 105.267L80 35.6356L105.636 10Z" fill="currentColor"/>
<path d="M105.636 149L174.904 218.451L200.359 243.904L105.636 339.173L80 313.537L149.634 244.267L80 174.636L105.636 149Z" fill="currentColor"/>
</svg>
