<svg width="350" height="350" viewBox="0 0 350 350" fill="none" xmlns="http://www.w3.org/2000/svg">
<path d="M277.025 163.697L277.154 163.624L326.087 248.636L344.087 279.809L227.934 347.316L227.859 347.188L227.731 347.263L178.8 262.25L160.799 231.076L276.952 163.569L277.025 163.697ZM209.89 243.854L241.122 297.948L294.996 267.032L263.763 212.937L209.89 243.854ZM118.694 126.681L149.89 144.641L83.1865 261.258L51.7685 243.167L101.003 158.178L15.664 109.04L33.7549 77.6219L118.694 126.681ZM230 7.99988C267.003 7.99988 297 37.9969 297 74.9999C297 112.003 267.003 142 230 142C192.997 142 163 112.003 163 74.9999C163 37.9969 192.997 7.99989 230 7.99988ZM230 44.9989C213.431 44.9989 199.999 58.431 199.999 74.9999C199.999 91.5688 213.431 105.001 230 105.001C246.569 105.001 260.001 91.5688 260.001 74.9999C260.001 58.431 246.569 44.9989 230 44.9989Z" fill="currentColor"/>
</svg>
