<svg width="351" height="350" viewBox="0 0 351 350" fill="none" xmlns="http://www.w3.org/2000/svg">
<path d="M135.452 215.089L150.217 215.108L186.214 215.107L186.6 349.452H150.346L150.603 251.231H135.452V251.233L134.824 251.231L52.127 251.233V251.015L37.2324 250.977L37.2334 349.452H0.979507L1.10939 251.363L1.10744 215.366L52.127 215.219V214.979L109.334 215.054L135.452 214.979V215.089ZM302.903 107.451L328.358 132.903L233.636 228.173L208 202.537L277.634 133.267L208 63.6357L233.636 38L302.903 107.451ZM101 66C138.003 66 168 95.9969 168 133C168 170.003 138.003 200 101 200C63.9969 200 34 170.003 34 133C34 95.9969 63.9969 66 101 66ZM101 102.999C84.4311 102.999 70.999 116.431 70.999 133C70.999 149.569 84.4311 163.001 101 163.001C117.569 163.001 131.001 149.569 131.001 133C131.001 116.431 117.569 102.999 101 102.999Z" fill="currentColor"/>
</svg>
